<?xml version="1.0" encoding="UTF-8"?>
<svg id="Layer_1" xmlns="http://www.w3.org/2000/svg" version="1.1" viewBox="0 0 274.3 64">
  <!-- Generator: Adobe Illustrator 29.5.0, SVG Export Plug-In . SVG Version: 2.1.0 Build 137)  -->
  <defs>
    <style>
      .st0 {
        fill: #fff;
      }
    </style>
  </defs>
  <g>
    <path class="st0" d="M14.9,32c-.7-.4-1.4-.8-2.2-1-.8-.3-1.6-.5-2.4-.6-.8-.2-1.5-.3-2.2-.5-.7-.2-1.2-.4-1.6-.6-.4-.3-.6-.6-.6-1s.1-.6.3-.9c.2-.3.6-.5,1-.6.5-.2,1.1-.2,1.9-.2s1.8.1,2.7.4,1.9.6,2.8,1.1l1.7-4.2c-1-.6-2.1-1-3.3-1.3s-2.5-.4-3.8-.4c-2,0-3.6.3-4.9.9s-2.3,1.4-2.9,2.3c-.6,1-1,2-1,3.2s.2,1.9.6,2.6c.4.7,1,1.3,1.6,1.7s1.4.8,2.2,1c.8.3,1.6.5,2.4.6s1.5.3,2.2.5c.7.2,1.2.4,1.6.6.4.3.6.6.6,1.1s-.1.6-.3.8c-.2.2-.6.4-1,.6-.5.1-1.1.2-1.9.2-1.2,0-2.3-.2-3.5-.6-1.2-.4-2.2-.8-3.1-1.4l-1.8,4.1c.9.6,2.2,1.2,3.7,1.6s3.1.6,4.7.6,3.6-.3,4.9-.9c1.3-.6,2.3-1.4,2.9-2.3.6-1,1-2,1-3.2s-.2-1.9-.6-2.6c-.4-.7-.9-1.3-1.6-1.7h0Z"/>
    <polygon class="st0" points="36.7 36.3 33.5 26.9 28.9 26.9 25.6 36.2 22.5 26.9 17.4 26.9 22.9 42.3 28.1 42.3 31.1 33.9 34 42.3 39.2 42.3 44.7 26.9 39.9 26.9 36.7 36.3"/>
    <path class="st0" d="M52.3,26.7c-1.2,0-2.4.1-3.6.5s-2.3.8-3.1,1.3l1.8,3.7c.5-.4,1.2-.7,1.9-1,.8-.2,1.5-.3,2.2-.3,1.1,0,2,.2,2.5.7.5.4.7,1,.7,1.7h-3c-1.6,0-2.9.2-3.9.6-1,.4-1.7.9-2.2,1.6-.5.7-.7,1.5-.7,2.4s.2,1.7.7,2.4,1.1,1.3,1.9,1.7c.8.4,1.9.6,3.1.6s2.4-.3,3.2-.8c.6-.4,1-.9,1.3-1.6v2.1h5v-8.5c0-2.4-.7-4.2-2.1-5.4-1.4-1.1-3.3-1.7-5.8-1.7h0ZM53.7,38.7c-.5.3-1,.4-1.6.4s-1.1-.1-1.5-.4c-.4-.3-.5-.7-.5-1.1s.2-.8.5-1.1c.3-.3,1-.4,1.8-.4h2.3v1.3c-.2.6-.6,1-1.1,1.3h0Z"/>
    <path class="st0" d="M66.2,25.2c1,0,1.8-.3,2.4-.8s.9-1.3.9-2.1-.3-1.5-.9-2c-.6-.5-1.4-.8-2.4-.8s-1.8.3-2.4.8-.9,1.2-.9,2,.3,1.5.9,2c.6.6,1.4.8,2.4.8h0Z"/>
    <rect class="st0" x="63.5" y="26.9" width="5.4" height="15.4"/>
  </g>
  <path class="st0" d="M185,31.8c-.4-.3-.9-.4-1.5-.4s-1,.1-1.5.4-.8.6-1.1,1.1c-.3.5-.4,1.1-.4,1.8s.1,1.3.4,1.8c.3.5.6.9,1.1,1.2.4.3.9.4,1.5.4s1.1-.1,1.5-.4.8-.6,1-1.2c.3-.5.4-1.1.4-1.8s-.1-1.3-.4-1.8-.6-.9-1-1.1Z"/>
  <path class="st0" d="M104.6,31.4c-.4-.3-1-.4-1.5-.4s-1.1.1-1.5.4-.8.6-1,1.1c-.1.3-.2.6-.3.9h5.7c0-.3-.1-.7-.3-.9-.3-.5-.6-.8-1-1.1h0Z"/>
  <path class="st0" d="M129.4,31.4c-.4-.3-1-.4-1.5-.4s-1.1.1-1.5.4-.8.6-1,1.1c-.1.3-.2.6-.3.9h5.7c0-.3-.1-.7-.3-.9-.3-.5-.6-.8-1-1.1h0Z"/>
  <path class="st0" d="M263.6,1.6L108.5.7c-3.8,0-7.4,1.9-9.3,5.1l-25.8,42.4c-4.1,6.8,1,15.3,9.3,15.3h154.5c3.8,0,7.2-1.9,9.2-4.9l26.5-41.4c4.3-6.8-.8-15.4-9.1-15.4h0ZM110.6,35.4c0,.2,0,.4,0,.6h-10.2c0,.2.1.5.3.7.3.5.7.9,1.2,1.2.5.3,1.2.4,1.9.4s1.3,0,1.8-.3,1-.5,1.5-.9l2.6,2.7c-.7.7-1.5,1.3-2.5,1.7-1,.4-2.2.6-3.5.6s-3.1-.3-4.3-.9c-1.2-.6-2.2-1.5-2.9-2.6-.7-1.1-1-2.4-1-3.8s.3-2.7,1-3.8,1.6-2,2.8-2.6c1.2-.6,2.5-.9,4-.9s2.7.3,3.8.8c1.1.6,2,1.4,2.7,2.5.7,1.1,1,2.4,1,4s0,.4,0,.6h0ZM117.8,41.8h-4.9v-19.3h4.9v19.3ZM135.3,35.4c0,.2,0,.4,0,.6h-10.2c0,.2.1.5.3.7.3.5.7.9,1.2,1.2s1.2.4,1.9.4,1.3,0,1.8-.3c.5-.2,1-.5,1.5-.9l2.6,2.7c-.7.7-1.5,1.3-2.5,1.7-1,.4-2.2.6-3.5.6s-3.1-.3-4.3-.9-2.2-1.5-2.9-2.6c-.7-1.1-1-2.4-1-3.8s.3-2.7,1-3.8,1.6-2,2.8-2.6c1.2-.6,2.5-.9,4-.9s2.7.3,3.8.8,2,1.4,2.7,2.5c.7,1.1,1,2.4,1,4s0,.4,0,.6h0ZM142.1,36.5c.3.5.6.9,1.1,1.1.5.3,1,.4,1.6.4s1.1-.1,1.6-.5c.5-.3.9-.8,1.2-1.4l3.8,2c-.5,1.2-1.3,2.2-2.5,2.9-1.2.7-2.5,1-4.1,1s-2.9-.3-4.2-.9-2.2-1.5-2.9-2.6c-.7-1.1-1-2.4-1-3.8s.3-2.7,1-3.8c.7-1.1,1.7-1.9,2.9-2.6,1.2-.6,2.6-.9,4.2-.9s3,.3,4.1,1,2,1.6,2.5,2.9l-3.8,2c-.3-.7-.7-1.1-1.2-1.4s-1-.5-1.6-.5-1.1.1-1.6.4c-.5.3-.8.6-1.1,1.1-.3.5-.4,1.1-.4,1.8s.1,1.3.4,1.8ZM161.7,41.8c-.6.1-1.2.2-1.9.2-1.8,0-3.2-.4-4.2-1.3-1-.9-1.5-2.2-1.5-4v-5.3h-2v-3.7h2v-3.1h4.9v3.1h3.2v3.7h-3.2v5.2c0,.5.1.9.4,1.2.3.3.6.4,1.1.4s1.1-.1,1.5-.4l1.2,3.4c-.4.3-.9.5-1.5.6h0ZM174.5,31.9c-.2,0-.4,0-.6,0h-.5c-1,0-1.8.3-2.4.8-.6.6-.9,1.4-.9,2.7v6.5h-4.9v-14.1h4.7v1.7c.4-.5.8-.9,1.3-1.2.9-.5,2.1-.8,3.4-.8,0,0,0,4.4,0,4.4ZM190.4,38.5c-.7,1.1-1.6,2-2.8,2.6s-2.6.9-4.1.9-2.9-.3-4.1-.9-2.1-1.5-2.8-2.6c-.7-1.1-1-2.4-1-3.8s.3-2.7,1-3.8c.7-1.1,1.6-1.9,2.8-2.6,1.2-.6,2.6-.9,4.1-.9s2.9.3,4.1.9,2.1,1.5,2.8,2.6c.7,1.1,1,2.3,1,3.8s-.3,2.7-1,3.8ZM208.7,41.8h-4.9v-7.2c0-1-.2-1.7-.6-2.2s-1-.7-1.7-.7-1,.1-1.4.3c-.4.2-.8.6-1,1.1s-.4,1.1-.4,1.9v6.8h-4.9v-14.1h4.7v1.5c.4-.4.8-.8,1.3-1,.9-.5,2-.8,3.2-.8s2.1.2,3,.7,1.6,1.1,2.1,2c.5.9.8,2.1.8,3.6v8h0ZM216.7,41.8h-4.9v-14.1h4.9v14.1ZM216.4,25.4c-.6.5-1.3.8-2.2.8s-1.6-.3-2.2-.8c-.6-.5-.8-1.1-.8-1.9s.3-1.4.8-1.9c.6-.5,1.3-.8,2.2-.8s1.6.2,2.2.7.8,1.1.8,1.8-.3,1.4-.8,1.9h0ZM224.4,36.5c.3.5.6.9,1.1,1.1.5.3,1,.4,1.6.4s1.1-.1,1.6-.5c.5-.3.9-.8,1.2-1.4l3.8,2c-.5,1.2-1.3,2.2-2.5,2.9-1.2.7-2.5,1-4.1,1s-2.9-.3-4.2-.9-2.2-1.5-2.9-2.6c-.7-1.1-1-2.4-1-3.8s.3-2.7,1-3.8c.7-1.1,1.7-1.9,2.9-2.6,1.2-.6,2.6-.9,4.2-.9s3,.3,4.1,1,2,1.6,2.5,2.9l-3.8,2c-.3-.7-.7-1.1-1.2-1.4s-1-.5-1.6-.5-1.1.1-1.6.4-.8.6-1.1,1.1c-.3.5-.4,1.1-.4,1.8s.1,1.3.4,1.8ZM246.8,39.7c-.5.7-1.3,1.3-2.3,1.7-1,.4-2.3.6-3.8.6s-2.4-.1-3.5-.4-2-.6-2.7-1l1.5-3.4c.7.4,1.4.7,2.3.9.9.2,1.7.3,2.6.3s1.4,0,1.7-.3c.3-.2.5-.4.5-.7s-.1-.5-.5-.6c-.3-.1-.7-.2-1.2-.3-.5,0-1-.1-1.6-.2s-1.2-.2-1.8-.3-1.1-.4-1.6-.7c-.5-.3-.9-.7-1.2-1.2s-.4-1.2-.4-2,.3-1.7.8-2.4c.5-.7,1.3-1.3,2.3-1.7,1-.4,2.3-.6,3.7-.6s2,0,3,.3,1.9.5,2.6.9l-1.5,3.3c-.7-.4-1.4-.7-2.1-.8s-1.3-.2-2-.2-1.4,0-1.7.3-.5.4-.5.7.1.5.4.6.7.3,1.2.3,1,.1,1.6.2c.6,0,1.2.2,1.8.3.6.1,1.1.4,1.6.7.5.3.9.7,1.2,1.2s.4,1.2.4,2-.3,1.6-.8,2.3Z"/>
</svg>